<svg data-v-423bf9ae="" xmlns="http://www.w3.org/2000/svg" viewBox="0 0 285.1877813520501 60" class="font"><!----><!----><defs data-v-423bf9ae=""><linearGradient data-v-423bf9ae="" gradientTransform="rotate(25)" id="fbad9b88-e956-4de3-81af-d26b3fbbf4e3" x1="0%" y1="0%" x2="100%" y2="0%"><stop data-v-423bf9ae="" offset="0%" style="stop-color: rgb(40, 139, 88); stop-opacity: 1;"></stop><stop data-v-423bf9ae="" offset="100%" style="stop-color: rgb(21, 34, 241); stop-opacity: 1;"></stop></linearGradient></defs><g data-v-423bf9ae="" id="b946b132-f115-4c91-98d9-c15f2d57cbb1" fill="url(#fbad9b88-e956-4de3-81af-d26b3fbbf4e3)" transform="matrix(4.793160151102735,0,0,4.793160151102735,3.5481670106216256,-1.7307184720021773)"><path d="M5.38 1.59Q4.28 1.45 2.60 1.75L2.60 1.75Q2.60 1.74 2.61 1.70L2.61 1.70Q2.63 1.66 2.63 1.64L2.63 1.64Q2.69 1.39 2.04 1.50L2.04 1.50Q1.74 1.56 1.49 1.67L1.49 1.67Q1.22 1.80 1.19 1.90L1.19 1.90Q1.20 1.88 1.14 2.08L1.14 2.08Q0.95 2.18 0.89 2.30L0.89 2.30Q0.82 2.43 1.04 2.45L1.04 2.45Q-0.23 7.25-0.74 10.98L-0.74 10.98Q-0.75 11.10-0.37 11.07L-0.37 11.07Q-0.12 11.05 0.05 11.00L0.05 11.00Q0.69 10.83 0.72 10.59L0.72 10.59Q0.94 8.95 1.31 7.16L1.31 7.16Q1.24 7.17 2.30 7.09L2.30 7.09Q2.94 7.05 3.27 6.75L3.27 6.75Q3.43 6.60 3.24 6.54L3.24 6.54Q3.11 6.50 2.93 6.51L2.93 6.51Q1.80 6.60 1.41 6.66L1.41 6.66Q1.83 4.65 2.47 2.24L2.47 2.24Q3.49 2.06 4.18 2.15L4.18 2.15Q4.66 2.21 5.20 1.96L5.20 1.96Q5.34 1.89 5.45 1.78L5.45 1.78Q5.60 1.62 5.38 1.59L5.38 1.59ZM7.67 4.53Q7.36 4.35 6.69 4.50L6.69 4.50Q6.20 4.62 5.79 4.94L5.79 4.94Q5.79 4.94 5.78 4.94L5.78 4.94Q5.78 4.94 5.78 4.95L5.78 4.95Q5.83 4.53 5.79 4.16L5.79 4.16Q5.78 4.07 5.54 4.05L5.54 4.05Q5.33 4.05 5.03 4.12L5.03 4.12Q4.30 4.29 4.33 4.55L4.33 4.55Q4.38 5.05 3.82 7.33L3.82 7.33Q3.73 7.73 3.63 8.28L3.63 8.28Q3.27 9.37 3.16 10.66L3.16 10.66Q3.15 10.73 3.15 10.73L3.15 10.73Q3.14 10.90 3.83 10.77L3.83 10.77Q4.54 10.63 4.61 10.40L4.61 10.40Q4.75 9.87 5.07 8.07L5.07 8.07Q5.58 6.54 6.55 5.39L6.55 5.39Q6.59 5.61 6.53 5.93L6.53 5.93Q6.44 6.43 6.10 7.06L6.10 7.06Q5.83 7.59 5.59 7.79L5.59 7.79Q5.43 7.94 5.63 8.00L5.63 8.00Q5.76 8.04 5.93 8.03L5.93 8.03Q6.58 7.96 6.92 7.68L6.92 7.68Q7.23 7.40 7.57 6.75L7.57 6.75Q7.92 6.10 8.01 5.46L8.01 5.46Q8.11 4.79 7.67 4.53L7.67 4.53ZM9.04 7.05Q9.13 6.66 9.21 6.31L9.21 6.31Q9.41 5.80 9.68 5.24L9.68 5.24Q9.81 4.99 9.97 4.76L9.97 4.76Q10.03 4.68 10.11 4.59L10.11 4.59Q10.09 4.61 10.13 4.57L10.13 4.57Q10.16 4.59 10.20 4.61L10.20 4.61Q10.47 4.82 10.53 5.46L10.53 5.46Q10.61 6.01 10.36 6.95L10.36 6.95Q9.56 6.97 9.04 7.05L9.04 7.05ZM8.81 10.48Q8.81 10.48 8.81 10.48L8.81 10.48Q8.81 10.48 8.79 10.49L8.79 10.49Q8.80 10.49 8.81 10.48L8.81 10.48ZM10.31 4.42L10.31 4.42Q10.32 4.42 10.32 4.41L10.32 4.41Q10.32 4.42 10.31 4.42L10.31 4.42ZM12.00 5.11Q11.96 4.50 11.62 4.17L11.62 4.17Q11.25 3.80 10.27 3.98L10.27 3.98Q9.37 4.14 8.83 4.68L8.83 4.68Q8.46 5.04 8.16 5.69L8.16 5.69Q7.70 6.49 7.46 8.04L7.46 8.04Q7.33 8.93 7.34 9.63L7.34 9.63Q7.34 10.77 8.05 10.94L8.05 10.94Q8.52 11.06 9.35 10.78L9.35 10.78Q9.85 10.62 10.32 10.23L10.32 10.23Q11.12 9.57 11.27 8.68L11.27 8.68Q11.31 8.44 10.69 8.54L10.69 8.54Q10.38 8.60 10.14 8.72L10.14 8.72Q9.85 8.85 9.84 8.94L9.84 8.94Q9.74 9.50 9.32 10.04L9.32 10.04Q9.22 10.15 9.07 10.28L9.07 10.28Q8.94 10.17 8.86 9.85L8.86 9.85Q8.77 9.51 8.80 8.76L8.80 8.76Q8.85 8.08 8.96 7.53L8.96 7.53Q9.26 7.50 9.80 7.50L9.80 7.50Q10.49 7.51 10.64 7.50L10.64 7.50Q10.87 7.49 11.20 7.38L11.20 7.38Q11.62 7.22 11.67 7.08L11.67 7.08Q12.07 5.92 12.00 5.11L12.00 5.11ZM13.32 7.05Q13.40 6.66 13.49 6.31L13.49 6.31Q13.69 5.80 13.95 5.24L13.95 5.24Q14.08 4.99 14.25 4.76L14.25 4.76Q14.30 4.68 14.38 4.59L14.38 4.59Q14.36 4.61 14.40 4.57L14.40 4.57Q14.43 4.59 14.47 4.61L14.47 4.61Q14.75 4.82 14.81 5.46L14.81 5.46Q14.88 6.01 14.63 6.95L14.63 6.95Q13.84 6.97 13.32 7.05L13.32 7.05ZM13.08 10.48Q13.08 10.48 13.08 10.48L13.08 10.48Q13.08 10.48 13.06 10.49L13.06 10.49Q13.08 10.49 13.08 10.48L13.08 10.48ZM14.58 4.42L14.58 4.42Q14.59 4.42 14.59 4.41L14.59 4.41Q14.59 4.42 14.58 4.42L14.58 4.42ZM16.27 5.11Q16.23 4.50 15.89 4.17L15.89 4.17Q15.52 3.80 14.55 3.98L14.55 3.98Q13.64 4.14 13.10 4.68L13.10 4.68Q12.73 5.04 12.43 5.69L12.43 5.69Q11.98 6.49 11.74 8.04L11.74 8.04Q11.61 8.93 11.61 9.63L11.61 9.63Q11.61 10.77 12.33 10.94L12.33 10.94Q12.79 11.06 13.62 10.78L13.62 10.78Q14.12 10.62 14.59 10.23L14.59 10.23Q15.39 9.57 15.54 8.68L15.54 8.68Q15.59 8.44 14.96 8.54L14.96 8.54Q14.66 8.60 14.41 8.72L14.41 8.72Q14.12 8.85 14.11 8.94L14.11 8.94Q14.01 9.50 13.59 10.04L13.59 10.04Q13.49 10.15 13.34 10.28L13.34 10.28Q13.21 10.17 13.13 9.85L13.13 9.85Q13.04 9.51 13.08 8.76L13.08 8.76Q13.12 8.08 13.23 7.53L13.23 7.53Q13.54 7.50 14.07 7.50L14.07 7.50Q14.76 7.51 14.91 7.50L14.91 7.50Q15.14 7.49 15.48 7.38L15.48 7.38Q15.89 7.22 15.94 7.08L15.94 7.08Q16.34 5.92 16.27 5.11L16.27 5.11ZM17.92 0.91Q17.21 2.82 16.65 5.84L16.65 5.84Q15.74 10.69 15.70 10.86L15.70 10.86Q15.65 11.10 16.29 10.99L16.29 10.99Q16.59 10.93 16.84 10.81L16.84 10.81Q17.12 10.68 17.14 10.60L17.14 10.60Q19.43 0.48 19.37 0.65L19.37 0.65Q19.46 0.39 18.79 0.51L18.79 0.51Q18.02 0.65 17.92 0.91L17.92 0.91ZM23.73 4.50Q23.67 4.33 23.14 4.44L23.14 4.44Q21.94 4.66 21.12 5.45L21.12 5.45Q20.93 5.63 20.76 5.84L20.76 5.84Q20.99 4.81 21.11 4.05L21.11 4.05Q21.12 3.92 20.74 3.96L20.74 3.96Q20.49 3.98 20.32 4.03L20.32 4.03Q19.68 4.20 19.65 4.44L19.65 4.44Q19.52 5.31 18.96 7.64L18.96 7.64Q18.47 9.64 18.38 10.86L18.38 10.86Q18.37 11.04 19.06 10.89L19.06 10.89Q19.76 10.75 19.83 10.53L19.83 10.53Q20.69 8.17 21.16 7.23L21.16 7.23Q21.66 6.24 22.14 5.65L22.14 5.65Q22.26 5.50 22.42 5.36L22.42 5.36Q22.63 6.30 22.23 8.51L22.23 8.51Q21.68 11.60 21.37 12.71L21.37 12.71Q21.30 12.96 21.96 12.84L21.96 12.84Q22.26 12.78 22.51 12.67L22.51 12.67Q22.79 12.54 22.81 12.45L22.81 12.45Q23.12 11.34 23.69 8.18L23.69 8.18Q23.89 7.02 23.94 6.25L23.94 6.25Q24.00 5.17 23.73 4.50L23.73 4.50ZM26.82 4.18Q26.81 4.18 26.81 4.18L26.81 4.18L26.81 4.18Q26.82 4.18 26.82 4.18L26.82 4.18ZM28.45 4.01Q27.97 3.53 26.97 3.69L26.97 3.69Q25.91 3.87 25.16 4.55L25.16 4.55Q24.17 5.42 23.86 7.32L23.86 7.32Q23.54 9.30 24.09 10.34L24.09 10.34Q24.57 11.27 26.08 10.77L26.08 10.77Q27.12 10.44 27.75 9.38L27.75 9.38Q27.84 9.24 27.54 9.22L27.54 9.22Q27.34 9.21 27.17 9.25L27.17 9.25Q26.48 9.37 26.32 9.64L26.32 9.64Q26.13 9.96 25.92 10.19L25.92 10.19Q25.88 10.22 25.82 10.27L25.82 10.27Q25.63 10.15 25.49 9.85L25.49 9.85Q25.25 9.34 25.22 8.37L25.22 8.37Q25.20 7.59 25.35 6.80L25.35 6.80Q25.50 5.98 25.84 5.29L25.84 5.29Q26.20 4.58 26.67 4.27L26.67 4.27Q26.67 4.27 26.68 4.26L26.68 4.26L26.69 4.26Q26.72 4.27 26.77 4.29L26.77 4.29Q26.90 4.35 27.04 4.48L27.04 4.48Q27.46 4.85 27.46 5.58L27.46 5.58Q27.46 6.13 27.10 6.54L27.10 6.54Q26.96 6.70 27.13 6.75L27.13 6.75Q27.25 6.79 27.44 6.77L27.44 6.77Q28.17 6.71 28.42 6.43L28.42 6.43Q28.89 5.90 28.91 5.22L28.91 5.22Q28.94 4.51 28.45 4.01L28.45 4.01ZM30.13 7.05Q30.21 6.66 30.30 6.31L30.30 6.31Q30.50 5.80 30.77 5.24L30.77 5.24Q30.90 4.99 31.06 4.76L31.06 4.76Q31.12 4.68 31.20 4.59L31.20 4.59Q31.18 4.61 31.22 4.57L31.22 4.57Q31.25 4.59 31.29 4.61L31.29 4.61Q31.56 4.82 31.62 5.46L31.62 5.46Q31.70 6.01 31.45 6.95L31.45 6.95Q30.65 6.97 30.13 7.05L30.13 7.05ZM29.90 10.48Q29.90 10.48 29.90 10.48L29.90 10.48Q29.90 10.48 29.88 10.49L29.88 10.49Q29.89 10.49 29.90 10.48L29.90 10.48ZM31.40 4.42L31.40 4.42Q31.40 4.42 31.40 4.41L31.40 4.41Q31.40 4.42 31.40 4.42L31.40 4.42ZM33.09 5.11Q33.04 4.50 32.71 4.17L32.71 4.17Q32.34 3.80 31.36 3.98L31.36 3.98Q30.45 4.14 29.91 4.68L29.91 4.68Q29.54 5.04 29.25 5.69L29.25 5.69Q28.79 6.49 28.55 8.04L28.55 8.04Q28.42 8.93 28.43 9.63L28.43 9.63Q28.43 10.77 29.14 10.94L29.14 10.94Q29.61 11.06 30.44 10.78L30.44 10.78Q30.94 10.62 31.40 10.23L31.40 10.23Q32.21 9.57 32.36 8.68L32.36 8.68Q32.40 8.44 31.78 8.54L31.78 8.54Q31.47 8.60 31.23 8.72L31.23 8.72Q30.94 8.85 30.93 8.94L30.93 8.94Q30.83 9.50 30.41 10.04L30.41 10.04Q30.31 10.15 30.16 10.28L30.16 10.28Q30.03 10.17 29.95 9.85L29.95 9.85Q29.86 9.51 29.89 8.76L29.89 8.76Q29.93 8.08 30.04 7.53L30.04 7.53Q30.35 7.50 30.88 7.50L30.88 7.50Q31.58 7.51 31.73 7.50L31.73 7.50Q31.96 7.49 32.29 7.38L32.29 7.38Q32.71 7.22 32.76 7.08L32.76 7.08Q33.15 5.92 33.09 5.11L33.09 5.11ZM38.04 5.50Q38.49 4.74 38.70 3.53L38.70 3.53Q38.94 2.15 38.44 1.57L38.44 1.57Q38.15 1.22 37.40 1.27L37.40 1.27Q36.46 1.33 35.57 1.85L35.57 1.85Q34.32 2.59 33.71 4.34L33.71 4.34Q33.09 6.10 33.71 7.18L33.71 7.18Q34.00 7.68 35.38 8.17L35.38 8.17Q35.94 8.37 36.15 8.48L36.15 8.48Q36.59 8.74 36.67 9.11L36.67 9.11Q36.77 9.50 36.43 10.17L36.43 10.17Q36.25 10.51 35.97 10.76L35.97 10.76Q35.85 10.87 35.70 10.97L35.70 10.97Q35.62 11.02 35.60 11.03L35.60 11.03Q35.54 11.07 35.48 11.09L35.48 11.09Q35.57 11.05 35.45 11.10L35.45 11.10Q35.46 11.10 35.52 11.09L35.52 11.09Q35.48 11.09 35.43 11.09L35.43 11.09Q35.42 11.10 35.33 11.09L35.33 11.09Q35.28 11.09 35.13 11.05L35.13 11.05Q34.77 10.97 34.47 10.64L34.47 10.64Q34.25 10.39 34.17 9.93L34.17 9.93Q34.06 9.44 34.29 9.28L34.29 9.28Q34.49 9.13 34.47 9.06L34.47 9.06Q34.44 8.97 34.21 8.96L34.21 8.96Q33.58 8.95 33.17 9.24L33.17 9.24Q32.79 9.53 32.71 9.86L32.71 9.86Q32.63 10.20 32.79 10.62L32.79 10.62Q33.06 11.36 33.93 11.61L33.93 11.61Q34.82 11.87 36.09 11.37L36.09 11.37Q37.10 10.96 37.67 10.24L37.67 10.24Q38.04 9.76 38.13 9.24L38.13 9.24Q38.23 8.62 37.85 8.23L37.85 8.23Q37.58 7.96 37.02 7.75L37.02 7.75Q36.87 7.70 36.56 7.59L36.56 7.59Q36.26 7.50 36.13 7.44L36.13 7.44Q35.60 7.23 35.32 6.97L35.32 6.97Q35.02 6.69 34.92 5.96L34.92 5.96Q34.72 4.53 35.67 2.97L35.67 2.97Q36.09 2.29 36.59 1.95L36.59 1.95Q36.64 1.91 36.74 1.86L36.74 1.86Q36.73 1.86 36.78 1.84L36.78 1.84Q36.77 1.84 36.81 1.83L36.81 1.83Q36.78 1.84 36.83 1.83L36.83 1.83Q36.75 1.85 36.67 1.85L36.67 1.85Q36.70 1.85 36.68 1.85L36.68 1.85L36.70 1.85Q36.76 1.86 36.84 1.89L36.84 1.89Q36.85 1.89 36.95 1.96L36.95 1.96Q37.02 2.01 37.06 2.06L37.06 2.06Q37.17 2.20 37.24 2.45L37.24 2.45Q37.36 2.84 37.30 3.49L37.30 3.49Q37.17 4.81 36.60 5.76L36.60 5.76Q36.51 5.90 36.82 5.91L36.82 5.91Q37.02 5.92 37.18 5.89L37.18 5.89Q37.88 5.76 38.04 5.50L38.04 5.50ZM43.46 4.41Q43.29 3.82 42.44 3.94L42.44 3.94Q41.75 4.04 41.23 4.40L41.23 4.40Q40.84 4.66 40.50 5.13L40.50 5.13Q40.91 3.24 41.60 0.53L41.60 0.53Q41.66 0.28 41.02 0.40L41.02 0.40Q40.71 0.45 40.46 0.57L40.46 0.57Q40.18 0.70 40.16 0.79L40.16 0.79Q38.60 6.96 38.14 10.85L38.14 10.85Q38.12 11.03 38.81 10.88L38.81 10.88Q39.49 10.73 39.59 10.53L39.59 10.53Q39.66 10.37 40.17 8.85L40.17 8.85Q40.69 7.33 41.13 6.36L41.13 6.36Q41.62 5.26 42.01 4.78L42.01 4.78Q42.07 4.95 42.09 5.37L42.09 5.37Q42.11 5.97 41.88 7.46L41.88 7.46Q41.82 7.90 41.43 9.10L41.43 9.10Q41.11 10.12 41.10 10.75L41.10 10.75Q41.10 10.83 41.33 10.84L41.33 10.84Q41.54 10.85 41.83 10.79L41.83 10.79Q42.55 10.64 42.56 10.36L42.56 10.36Q42.57 9.87 43.07 8.25L43.07 8.25Q43.23 7.76 43.37 6.86L43.37 6.86Q43.48 6.12 43.52 5.61L43.52 5.61Q43.59 4.83 43.46 4.41L43.46 4.41ZM44.95 7.05Q45.04 6.66 45.12 6.31L45.12 6.31Q45.32 5.80 45.59 5.24L45.59 5.24Q45.72 4.99 45.88 4.76L45.88 4.76Q45.94 4.68 46.02 4.59L46.02 4.59Q46.00 4.61 46.04 4.57L46.04 4.57Q46.07 4.59 46.11 4.61L46.11 4.61Q46.38 4.82 46.44 5.46L46.44 5.46Q46.52 6.01 46.27 6.95L46.27 6.95Q45.47 6.97 44.95 7.05L44.95 7.05ZM44.72 10.48Q44.72 10.48 44.72 10.48L44.72 10.48Q44.72 10.48 44.70 10.49L44.70 10.49Q44.71 10.49 44.72 10.48L44.72 10.48ZM46.22 4.42L46.22 4.42Q46.22 4.42 46.22 4.41L46.22 4.41Q46.22 4.42 46.22 4.42L46.22 4.42ZM47.91 5.11Q47.87 4.50 47.53 4.17L47.53 4.17Q47.16 3.80 46.18 3.98L46.18 3.98Q45.27 4.14 44.73 4.68L44.73 4.68Q44.37 5.04 44.07 5.69L44.07 5.69Q43.61 6.49 43.37 8.04L43.37 8.04Q43.24 8.93 43.25 9.63L43.25 9.63Q43.25 10.77 43.96 10.94L43.96 10.94Q44.43 11.06 45.26 10.78L45.26 10.78Q45.76 10.62 46.22 10.23L46.22 10.23Q47.03 9.57 47.18 8.68L47.18 8.68Q47.22 8.44 46.60 8.54L46.60 8.54Q46.29 8.60 46.05 8.72L46.05 8.72Q45.76 8.85 45.75 8.94L45.75 8.94Q45.65 9.50 45.23 10.04L45.23 10.04Q45.13 10.15 44.98 10.28L44.98 10.28Q44.85 10.17 44.77 9.85L44.77 9.85Q44.68 9.51 44.71 8.76L44.71 8.76Q44.75 8.08 44.86 7.53L44.86 7.53Q45.17 7.50 45.71 7.50L45.71 7.50Q46.40 7.51 46.55 7.50L46.55 7.50Q46.78 7.49 47.11 7.38L47.11 7.38Q47.53 7.22 47.58 7.08L47.58 7.08Q47.97 5.92 47.91 5.11L47.91 5.11ZM48.94 4.42Q48.67 5.93 48.21 7.64L48.21 7.64Q48.02 8.35 47.76 9.22L47.76 9.22Q47.41 10.42 47.47 10.72L47.47 10.72Q47.52 10.95 48.24 10.77L48.24 10.77Q48.97 10.58 48.92 10.33L48.92 10.33Q48.87 10.06 49.20 8.96L49.20 8.96Q49.43 8.18 49.65 7.38L49.65 7.38Q50.09 5.70 50.37 4.16L50.37 4.16Q50.42 3.92 49.79 4.03L49.79 4.03Q49.49 4.09 49.23 4.20L49.23 4.20Q48.95 4.33 48.94 4.42L48.94 4.42ZM48.77 2.43Q49.06 2.63 49.27 2.83L49.27 2.83Q49.33 2.90 49.64 2.87L49.64 2.87Q49.92 2.84 50.20 2.74L50.20 2.74Q50.83 2.52 50.64 2.34L50.64 2.34Q50.44 2.13 50.14 1.93L50.14 1.93Q50.04 1.87 49.77 1.89L49.77 1.89Q49.49 1.92 49.21 2.02L49.21 2.02Q49.03 2.08 48.88 2.18L48.88 2.18Q48.63 2.34 48.77 2.43L48.77 2.43ZM52.15 0.91Q51.44 2.82 50.87 5.84L50.87 5.84Q49.96 10.69 49.93 10.86L49.93 10.86Q49.88 11.10 50.52 10.99L50.52 10.99Q50.82 10.93 51.07 10.81L51.07 10.81Q51.35 10.68 51.37 10.60L51.37 10.60Q53.66 0.48 53.59 0.65L53.59 0.65Q53.69 0.39 53.01 0.51L53.01 0.51Q52.25 0.65 52.15 0.91L52.15 0.91ZM54.16 9.28Q53.92 8.31 54.28 6.81L54.28 6.81Q54.65 5.33 55.33 4.59L55.33 4.59Q55.38 4.53 55.46 4.46L55.46 4.46Q55.47 4.47 55.49 4.49L55.49 4.49Q55.84 4.80 55.93 5.69L55.93 5.69Q55.94 5.79 56.18 5.80L56.18 5.80Q56.03 6.60 55.78 7.98L55.78 7.98Q55.50 9.58 55.39 10.17L55.39 10.17Q55.17 10.26 55.06 10.40L55.06 10.40Q55.06 10.40 55.04 10.44L55.04 10.44Q54.95 10.40 54.86 10.34L54.86 10.34Q54.36 10.02 54.16 9.28L54.16 9.28ZM58.17 0.60Q57.87 0.66 57.61 0.77L57.61 0.77Q57.35 0.90 57.32 1.00L57.32 1.00Q56.93 2.28 56.59 3.83L56.59 3.83Q56.33 3.74 55.99 3.77L55.99 3.77Q55.27 3.85 54.63 4.22L54.63 4.22Q53.50 4.86 52.93 6.75L52.93 6.75Q52.40 8.51 52.72 9.71L52.72 9.71Q52.94 10.55 53.64 10.92L53.64 10.92Q54.44 11.33 55.59 10.84L55.59 10.84Q55.71 10.83 55.88 10.81L55.88 10.81Q56.18 10.75 56.43 10.64L56.43 10.64Q56.71 10.50 56.73 10.41L56.73 10.41Q58.26 2.39 58.75 0.74L58.75 0.74Q58.83 0.49 58.17 0.60L58.17 0.60Z"></path></g><!----><!----></svg>